<?xml version="1.0" encoding="UTF-8"?>
<svg id="limbic" data-name="Capa 1" xmlns="http://www.w3.org/2000/svg" viewBox="0 0 257.4 53.64">
  <defs>
    <style>
      .cls-1 {
        fill: #231f20;
      }
    </style>
  </defs>
  <path class="cls-1" d="m33.05,51.26c2.88,0,5.75-1.32,8.6-3.96,2.85-2.64,5.38-5.69,7.56-9.14,2.18-3.46,4.16-7.1,5.94-10.94h1.15v25.7H0v-1.15c.38,0,.92-.01,1.62-.04.7-.02,1.75-.12,3.17-.29,1.42-.17,2.44-.56,3.06-1.19s1.01-1.68,1.15-3.17l.14-3.31V9.58l-.14-3.31c-.14-1.54-.47-2.6-.97-3.2-.5-.6-1.29-.97-2.34-1.12-1.06-.14-1.97-.23-2.74-.25-.77-.02-1.46-.06-2.09-.11V.43h34.85v1.15l-4.75.22c-1.44.14-2.42.5-2.95,1.08-.53.58-.86,1.66-1.01,3.24l-.14,3.31v42.05l6.19-.22Z"/>
  <path class="cls-1" d="m81.65,52.92h-23.4v-1.15l1.73-.07c1.39-.14,2.23-.48,2.52-1.01.29-.53.43-1.68.43-3.46l.07-3.31v-17.21l-.07-2.95c-.1-1.15-.24-2.02-.43-2.59-.19-.58-1.06-.94-2.59-1.08l-1.94-.14v-1.15h18.94v25.13l.07,3.31c0,1.73.14,2.87.43,3.42.29.55,1.13.9,2.52,1.04l1.73.07v1.15ZM62.78,6.77c0-1.87.69-3.47,2.06-4.79,1.37-1.32,3.03-1.98,4.96-1.98s3.65.64,5.03,1.91c1.38,1.27,2.06,2.89,2.06,4.86s-.69,3.54-2.06,4.86c-1.37,1.32-3.05,1.98-5.03,1.98s-3.58-.66-4.96-1.98c-1.38-1.32-2.06-2.94-2.06-4.86Z"/>
  <path class="cls-1" d="m150.05,52.92h-21.71v-1.15c1.67,0,2.65-.26,2.96-.79.31-.53.46-1.78.46-3.74l.07-3.31v-14.54l-.07-2.95c0-2.06-.25-3.55-.75-4.46-.5-.91-1.39-1.37-2.68-1.37-.86,0-1.77.4-2.75,1.19s-1.63,2.34-1.96,4.64v17.5l.07,3.31c0,1.54.08,2.64.25,3.31.17.67,1.08,1.08,2.75,1.22v1.15h-20.46v-1.15c1.62,0,2.59-.26,2.93-.79.33-.53.5-1.78.5-3.74l.07-3.31v-14.54l-.07-2.95c0-2.06-.25-3.55-.75-4.46-.5-.91-1.39-1.37-2.68-1.37-1.62,0-2.73.53-3.32,1.58-.6,1.06-1.06,2.14-1.39,3.24v18.5l.07,3.31c0,1.54.08,2.64.25,3.31.17.67,1.08,1.08,2.75,1.22v1.15h-21.57v-1.15l1.58-.07c1.39-.14,2.23-.48,2.52-1.01.29-.53.43-1.68.43-3.46l.07-3.31v-17.21l-.07-2.95c-.1-1.15-.24-2.02-.43-2.59-.19-.58-1.06-.94-2.59-1.08l-1.66-.14v-1.15h18.36v5.4c.43-1.34,1.28-2.7,2.56-4.07,1.27-1.37,3.85-2.05,7.74-2.05,2.69,0,5.03.56,7.02,1.69,1.99,1.13,3.47,2.82,4.43,5.08.24-.86.88-2.21,1.91-4.03,1.03-1.82,3.95-2.74,8.75-2.74,3.26,0,6.09.91,8.49,2.74,2.4,1.82,3.6,4.18,3.6,7.06v16.06l.07,3.31c0,1.82.13,2.98.39,3.46.26.48,1.12.82,2.56,1.01l1.3.07v1.15Z"/>
  <path class="cls-1" d="m193.53,35.71c0,5.42-1.83,9.77-5.47,13.03-3.65,3.26-8.28,4.9-13.9,4.9-3.7,0-6.58-.77-8.64-2.3-2.06-1.54-3.77-3.07-5.11-4.61h-.43c-.67.67-1.38,1.62-2.12,2.84-.74,1.22-1.45,2.41-2.12,3.56h-.86c.05-1.92.08-3.73.11-5.44.02-1.7.06-3.75.11-6.16V8.35l-.07-2.95c0-1.3-.21-2.2-.61-2.7-.41-.5-1.28-.83-2.63-.97l-2.74-.14V.43h19.94v16.27l-.14,5.69c.52-.96,1.37-1.92,2.54-2.88,1.17-.96,3.37-1.44,6.61-1.44,4.56,0,8.29,1.62,11.2,4.86,2.9,3.24,4.36,7.5,4.36,12.78Zm-14.54.07c0-.67-.05-1.96-.14-3.85-.1-1.9-.14-3.06-.14-3.49,0-2.54-.38-4.6-1.14-6.16-.76-1.56-2-2.34-3.72-2.34-1.48,0-2.55.42-3.22,1.26-.67.84-1.1,1.8-1.29,2.88s-.31,2.64-.36,4.68c-.05,2.04-.07,4.07-.07,6.08v4.82c0,1.3.07,2.64.21,4.03,0,2.54.39,4.64,1.18,6.3.79,1.66,1.99,2.48,3.61,2.48s2.76-.86,3.57-2.59c.81-1.73,1.22-3.84,1.22-6.34,0-.96.02-2.1.07-3.42.05-1.32.12-2.77.21-4.36Z"/>
  <path class="cls-1" d="m218.59,52.92h-23.4v-1.15l1.73-.07c1.39-.14,2.23-.48,2.52-1.01.29-.53.43-1.68.43-3.46l.07-3.31v-17.21l-.07-2.95c-.1-1.15-.24-2.02-.43-2.59-.19-.58-1.06-.94-2.59-1.08l-1.94-.14v-1.15h18.94v25.13l.07,3.31c0,1.73.14,2.87.43,3.42.29.55,1.13.9,2.52,1.04l1.73.07v1.15Zm-18.86-46.15c0-1.87.69-3.47,2.06-4.79,1.38-1.32,3.03-1.98,4.96-1.98s3.65.64,5.03,1.91c1.37,1.27,2.06,2.89,2.06,4.86s-.69,3.54-2.06,4.86c-1.38,1.32-3.05,1.98-5.03,1.98s-3.58-.66-4.96-1.98c-1.37-1.32-2.06-2.94-2.06-4.86Z"/>
  <path class="cls-1" d="m241.7,19.22c-1.34,0-2.47.53-3.38,1.58-.91,1.06-1.62,2.35-2.12,3.89-.5,1.54-.86,3.2-1.08,5-.22,1.8-.32,3.54-.32,5.22,0,4.37.73,8.17,2.2,11.41,1.47,3.24,4.06,4.86,7.76,4.86,2.65,0,4.96-.83,6.93-2.48,1.97-1.66,3.47-3.76,4.48-6.3l1.08.58c-3.22,7.1-8.99,10.66-17.31,10.66-5.48,0-10.15-1.62-14-4.86-3.85-3.24-5.77-7.52-5.77-12.85s1.89-9.69,5.66-12.96c3.78-3.26,8.48-4.9,14.1-4.9,2.11,0,4.06.23,5.84.68,1.78.46,3.45,1.08,5.01,1.87,1.56.79,3.05,1.92,4.47,3.38,1.42,1.46,2.13,3.18,2.13,5.15,0,1.78-.56,3.2-1.67,4.28s-2.75,1.62-4.92,1.62c-1.88,0-3.58-.66-5.1-1.98-1.52-1.32-2.28-2.82-2.28-4.5,0-1.3.26-2.54.79-3.74.53-1.2.79-2.21.79-3.02,0-.77-.29-1.39-.86-1.87-.58-.48-1.39-.72-2.45-.72Z"/>
</svg>